<?xml version="1.0" encoding="utf-8"?>
<!-- Generator: Adobe Illustrator 19.0.1, SVG Export Plug-In . SVG Version: 6.00 Build 0)  -->
<svg version="1.1" id="Layer_1" xmlns="http://www.w3.org/2000/svg" xmlns:xlink="http://www.w3.org/1999/xlink" x="0px" y="0px"
	 viewBox="0 0 100 100" style="enable-background:new 0 0 100 100;" xml:space="preserve">
<style type="text/css">
	.st0{fill:#00AAC5;}
	.st1{fill:#0397AA;}
	.st2{fill:#424A50;}
	.st3{fill:#373F42;}
	.st4{fill:#EAE5D1;}
	.st5{fill:#C1B9A3;}
	.st6{filter:url(#Adobe_OpacityMaskFilter);}
	.st7{mask:url(#SVGID_1_);}
	.st8{fill:#E9E4D1;}
	.st9{filter:url(#Adobe_OpacityMaskFilter_1_);}
	.st10{mask:url(#SVGID_2_);}
</style>
<rect x="19.4" y="8.7" class="st4" width="17.1" height="29.5"/>
<rect x="41.1" y="2" class="st4" width="17.1" height="34.9"/>
<rect x="62.7" y="13.6" class="st5" width="17.1" height="36.1"/>
<rect x="49.4" y="2" class="st5" width="8.8" height="34.9"/>
<polygon class="st2" points="79.8,84.7 49.4,99.1 19.4,84.7 19.4,24.3 79.8,24.3 "/>
<polygon class="st3" points="79.8,84.7 49.4,99.1 49.4,24.3 79.8,24.3 "/>
<g>
	<polygon class="st4" points="49.5,70.1 24.7,58.2 24.7,53.3 49.5,65.2 74.6,53.3 74.6,58.2 	"/>
</g>
<g>
	<polygon class="st4" points="49.5,81.6 24.7,69.7 24.7,64.8 49.5,76.7 74.6,64.8 74.6,69.7 	"/>
</g>
<g>
	<polygon class="st4" points="49.5,92.9 24.7,81 24.7,76.1 49.5,88 74.6,76.1 74.6,81 	"/>
</g>
<g>
	<polygon class="st5" points="49.5,70.1 24.7,58.2 24.7,53.3 49.5,65.2 	"/>
</g>
<g>
	<polygon class="st5" points="49.5,81.5 24.7,69.7 24.7,64.8 49.5,76.7 	"/>
</g>
<g>
	<polygon class="st5" points="49.5,92.9 24.7,81 24.7,76.1 49.5,88 	"/>
</g>
<defs>
	<filter id="Adobe_OpacityMaskFilter" filterUnits="userSpaceOnUse" x="28" y="36.6" width="16.7" height="16.7">
		<feFlood  style="flood-color:white;flood-opacity:1" result="back"/>
		<feBlend  in="SourceGraphic" in2="back" mode="normal"/>
	</filter>
</defs>
<mask maskUnits="userSpaceOnUse" x="28" y="36.6" width="16.7" height="16.7" id="SVGID_1_">
	<g class="st6">
		<g>
			<path d="M55,28.6c-0.4,0-9.6,0.1-14.4,9.4c-4.8,9.4,0.6,16.9,0.8,17.2l0.3,0.4l0.4,0c0.4,0,10-0.8,14.3-9.4
				c4.4-8.5-0.6-16.8-0.8-17.1l-0.2-0.4L55,28.6L55,28.6L55,28.6L55,28.6z"/>
		</g>
	</g>
</mask>
<g class="st7">
	<g>
		<path class="st8" d="M34.5,50.2l-1,0.2l-0.3-1.1l1-0.3c-0.2-0.6-0.4-1.2-0.7-1.8l-1.1,0.6l-0.6-1l1.1-0.6
			c-0.4-0.6-0.8-1.2-1.3-1.6l-1,0.9L30,44.7l0.9-0.9c-0.9-0.7-1.8-1.2-2.5-1.5c-0.7,2.2-0.6,4.6,0.7,6.8c1.2,2.1,3.2,3.5,5.4,4
			C34.7,52.3,34.7,51.3,34.5,50.2z"/>
		<path class="st8" d="M40.6,47.3L39.8,48L39,47.2l0.8-0.8c-0.5-0.6-1-1.2-1.4-2l-1,0.6l-0.6-1l1-0.6c-0.4-0.8-0.6-1.5-0.8-2.2
			l-1.3,0.4l-0.3-1.1l1.4-0.4c-0.2-1.3,0-2.5,0.2-3.4c-1.6-0.1-3.3,0.2-4.9,1.1c-1.4,0.8-2.5,2-3.3,3.4c0.9,0.4,2,0.9,3,1.8l0.9-0.8
			l0.8,0.8l-0.8,0.8c0.5,0.5,1,1.2,1.5,1.9l1-0.6l0.6,1l-1.1,0.6c0.4,0.7,0.6,1.5,0.8,2.2l1.4-0.4l0.3,1.1l-1.5,0.4
			c0.2,1.3,0.2,2.5,0,3.5c1.6,0.1,3.2-0.2,4.6-1.1c1.3-0.7,2.4-1.8,3.1-3C42.6,48.8,41.6,48.2,40.6,47.3z"/>
		<path class="st8" d="M38.2,39.7l1-0.3l0.3,1.1l-1.1,0.3c0.1,0.6,0.3,1.3,0.6,1.9l1.1-0.7l0.6,1l-1.2,0.7c0.4,0.6,0.8,1.2,1.2,1.7
			l1-1l0.8,0.8l-1,1c0.9,0.8,1.8,1.3,2.6,1.7c0.9-2.3,0.8-4.9-0.5-7.1c-1.2-2-3.1-3.4-5.2-4C38.2,37.6,38.1,38.6,38.2,39.7z"/>
	</g>
	<g>
		<path class="st5" d="M39.8,46.4C39.8,46.4,39.8,46.5,39.8,46.4L39.8,46.4C39.8,46.4,39.8,46.4,39.8,46.4z"/>
		<path class="st5" d="M34.6,52.3c-0.3,0.2-0.6,0.4-0.9,0.5c0.3,0.1,0.6,0.2,0.9,0.2C34.6,52.9,34.6,52.6,34.6,52.3z"/>
		<path class="st5" d="M40.6,47.3L39.8,48l-0.6-0.6c-0.8,1.4-1.9,2.8-3.3,3.9c0,0.7,0,1.3-0.1,1.9c1.6,0.1,3.2-0.2,4.6-1.1
			c1.3-0.7,2.4-1.8,3.1-3C42.6,48.8,41.6,48.2,40.6,47.3z"/>
		<path class="st5" d="M40.7,43l0.1,0.2l-0.1,0.1c-0.1,0.6-0.2,1.1-0.3,1.7c0.2,0.2,0.3,0.4,0.5,0.6l1-1l0.8,0.8l-1,1
			c0.9,0.8,1.8,1.3,2.6,1.7c0.9-2.3,0.8-4.9-0.5-7.1c-1-1.8-2.6-3.1-4.5-3.8C40.4,38.5,40.9,40.6,40.7,43z"/>
	</g>
</g>
<defs>
	<filter id="Adobe_OpacityMaskFilter_1_" filterUnits="userSpaceOnUse" x="52.5" y="38.7" width="18.1" height="14.2">
		<feFlood  style="flood-color:white;flood-opacity:1" result="back"/>
		<feBlend  in="SourceGraphic" in2="back" mode="normal"/>
	</filter>
</defs>
<mask maskUnits="userSpaceOnUse" x="52.5" y="38.7" width="18.1" height="14.2" id="SVGID_2_">
	<g class="st9">
		<g>
			<path d="M56,29.2c-0.4,0-9.6,0.1-14.4,9.4c-4.8,9.3,0.6,16.9,0.8,17.2l0.3,0.4l0.4,0c0.4,0,10-0.8,14.3-9.4
				c4.4-8.5-0.6-16.8-0.8-17.1l-0.2-0.4L56,29.2L56,29.2L56,29.2L56,29.2z"/>
		</g>
	</g>
</mask>
<g class="st10">
	<path class="st5" d="M67.1,48.1c-1.4,0.8-3,1.4-4.8,1.7c-2.6,0.5-5.1,0.5-7.2-0.2c-0.9-0.3-1.7-1-2.3-1.5c0.1,0.6,0.4,1.2,0.8,2
		c1.1,2.4,4.4,3.3,9.3,2.3c4.9-1,7.3-3.1,7.7-5.6c0.1-0.9,0.1-1.5,0-2.1C69.8,46,68.6,47.3,67.1,48.1z"/>
	<g>
		<g>
			<ellipse transform="matrix(-0.9803 0.1975 -0.1975 -0.9803 129.5417 74.2)" class="st4" cx="61.1" cy="43.6" rx="8.7" ry="4.7"/>
		</g>
		<g>
			<path class="st5" d="M66.9,42.2c0.5,2.5-2.1,5.2-2.1,5.2c3.2-1.3,5.2-3.5,4.8-5.5c-0.4-2.1-3.3-3.3-6.9-3.2
				C62.7,38.7,66.3,39.6,66.9,42.2z"/>
		</g>
	</g>
</g>
<g>
	<g>
		<path class="st4" d="M42.6,54.9c0,0,9.5-0.7,13.7-9c4.2-8.2-0.7-16.3-0.7-16.3s-9.1-0.1-13.7,9C37.2,47.6,42.6,54.9,42.6,54.9z"/>
	</g>
	<path class="st5" d="M42.6,54.9c0,0,9.5-0.7,13.7-9c4.2-8.2-0.7-16.3-0.7-16.3L42.6,54.9z"/>
	<g>

			<rect x="43.7" y="41.5" transform="matrix(-0.4553 0.8903 -0.8903 -0.4553 109.4966 17.5145)" class="st2" width="11.4" height="1.4"/>

			<rect x="48.5" y="38.7" transform="matrix(0.8904 0.4552 -0.4552 0.8904 23.5113 -18.8269)" class="st2" width="4.7" height="1.4"/>

			<rect x="47.1" y="41.5" transform="matrix(0.8903 0.4553 -0.4553 0.8903 24.6233 -17.8793)" class="st2" width="4.7" height="1.4"/>
		<rect x="45.6" y="44.2" transform="matrix(0.8903 0.4553 -0.4553 0.8903 25.731 -16.93)" class="st2" width="4.7" height="1.4"/>
	</g>
</g>
</svg>
